<?xml version="1.0" encoding="utf-8"?>
<svg viewBox="0.273 2.616 54.5 52.053" width="54.5" height="52.053" xmlns="http://www.w3.org/2000/svg">
  <path d="M 73.576 18.751 C 73.677 18.872 73.567 75.108 73.567 75.108 C 73.567 75.108 70.929 74.207 70.91 74.177 C 69.88 73.813 53.875 69.503 53.677 69.501 C 53.479 69.499 35.735 74.215 35.735 74.215 C 35.735 74.215 26.022 71.014 21.575 70.051 L 21.508 77.103 L 18.01 77.156 L 15.182 73.489 L 12.109 77.026 L 8.643 77.05 L 8.65 71.564 C 5.315 72.526 0.91 73.966 0.451 74.177 C 0.173 74.314 -2.179 75.164 -2.178 75.12 C -2.178 75.12 -2.239 18.708 -2.196 18.665 C -1.836 18.31 17.21 13.384 17.683 13.397 C 18.337 13.415 29.844 16.192 31.656 16.724 L 30.402 20.403 C 28.464 19.788 17.985 17.382 17.683 17.385 C 17.417 17.388 6.01 19.998 1.702 21.51 L 1.702 60.426 C 6.01 58.913 17.4 56.434 17.683 56.438 C 17.966 56.442 29.357 59.05 33.665 60.426 L 33.987 45.265 L 37.182 36.322 L 37.556 60.426 C 41.865 58.913 53.592 56.465 53.821 56.475 C 54.05 56.485 67.749 59.839 69.52 60.426 L 69.52 21.51 C 67.588 20.754 53.607 17.388 53.538 17.385 C 53.455 17.382 45.543 18.835 44.204 19.381 L 42.95 15.554 C 44.611 15.054 53.433 13.408 53.538 13.397 C 53.667 13.384 71.522 17.997 72.147 18.211 C 72.464 18.32 73.475 18.63 73.576 18.751 Z M 69.937 69.501 L 69.937 64.688 C 67.886 63.991 54.362 60.555 53.844 60.539 C 53.27 60.521 35.849 65.203 35.673 65.19 C 35.522 65.179 18.544 60.562 17.822 60.563 C 17.099 60.564 6.149 63.176 1.841 64.688 L 1.841 69.501 C 3.647 68.814 6.149 67.989 8.65 67.301 L 8.691 64.102 L 12.598 64.054 L 12.536 70.226 L 14.975 68.675 L 17.544 70.326 L 17.597 63.895 L 21.423 63.889 L 21.436 65.926 C 26.439 66.889 34.571 69.611 35.781 70.057 C 36.786 69.694 53.385 65.448 53.737 65.465 C 54.167 65.486 67.41 68.617 69.937 69.501 Z" style="fill: rgb(197, 48, 48);" transform="matrix(0.719569, 0, 0, 0.727221, 1.848717, -1.373934)"/>
  <path d="M 22.534 30.436 C 22.877 31.123 23.5 31.465 24.081 30.227 L 29.11 14.453 L 35.506 35.011 C 35.911 36.012 37.153 36.729 37.823 35.016 L 40.982 25.629 L 47.793 25.629 C 48.825 25.629 48.643 25.098 48.643 24.059 C 48.643 23.021 48.871 22.242 47.839 22.242 L 39.203 22.197 C 38.345 22.197 38.183 22.494 38.012 23.274 L 36.413 29.598 L 29.994 6.253 C 29.617 5.47 29.018 5.565 29.018 5.565 C 29.018 5.565 28.487 5.51 28.229 6.288 L 22.752 23.367 L 18.247 13.463 C 17.943 13.042 17.527 13.087 17.527 13.087 C 17.527 13.087 17.054 13.128 16.853 13.525 L 12.616 22.242 L 5.57 22.242 C 4.613 22.264 4.666 22.151 4.671 23.999 C 4.678 25.846 4.467 25.9 5.57 25.878 L 14.178 25.878 C 14.866 25.878 14.891 25.926 15.148 25.234 L 17.426 19.732 L 22.534 30.436 Z" style="fill: rgb(197, 48, 48);"/>
</svg>